<svg width="274" height="383" viewBox="0 0 274 383" fill="none" xmlns="http://www.w3.org/2000/svg">
<circle cx="137" cy="137" r="137" fill="#EAE3D8"/>
<path d="M52.772 80L66.2288 110.484L76.6684 134.123L91.6437 168.047L102.645 192.961L116.397 224.11L127.423 249.089H151.289L225.529 80H201.463L133.543 235.05L64.3994 80H52.772Z" fill="#4C433D"/>
<path d="M180.318 293.743C182.864 293.743 189.093 307.292 189.093 307.292C192.211 308.622 197.613 311.542 198.491 315.542C199.368 319.542 195.042 329.607 197.588 334.127C200.134 338.646 196.456 352.986 196.456 352.986C197.874 347.676 193.91 333.327 192.491 333.327C191.073 333.327 187.394 336.517 186.547 337.576C185.7 338.636 187.961 348.471 187.961 348.471C185.129 345.546 185.415 336.252 185.415 336.252C185.415 336.252 195.042 326.687 195.609 318.717C196.175 310.747 187.961 311.642 187.961 311.642V314.997C187.961 323.232 182.864 321.372 177.767 322.172C172.67 322.972 168.425 331.467 168.425 331.467C168.425 321.907 177.486 320.047 180.598 320.047C183.711 320.047 184.848 317.652 184.848 311.012C184.848 304.373 183.43 301.448 183.43 301.448C183.43 301.448 177.486 300.123 179.185 300.918C180.884 301.713 172.67 311.277 174.369 310.217C176.068 309.157 176.373 300.918 176.373 300.918C176.373 300.918 174.674 300.653 168.445 299.588C162.215 298.523 161.328 293.208 161.328 284.443C161.328 275.679 157.93 281.783 157.93 281.783L156.797 286.283C156.797 286.283 151.414 288.673 153.113 291.593C154.813 294.513 156.231 305.943 156.231 305.943C156.231 305.943 155.098 305.143 155.098 300.893C155.098 296.643 153.093 297.438 153.093 297.438L151.114 303.283V291.613C151.114 291.083 148.563 293.473 148.563 293.473C148.563 293.473 141.767 301.973 140.634 304.898C139.501 307.822 144.884 309.947 144.884 309.947C152.527 315.787 148.848 322.697 147.164 326.662C145.48 330.627 144.919 336.242 144.919 336.242C143.501 333.317 145.486 328.272 146.899 322.957C148.312 317.642 144.353 313.127 142.654 312.332C140.955 311.537 136.99 311.267 136.99 313.127C136.99 314.987 139.822 317.127 140.388 322.162C140.955 327.197 136.99 331.457 136.99 331.457C136.99 331.457 133.026 340.226 134.725 345.006C136.424 349.786 139.536 355.101 140.388 361.476C140.828 365.16 142.085 368.701 144.067 371.84L143.787 383L142.934 372.11C142.934 372.11 140.388 368.92 139.256 362.016C138.123 355.111 129.628 339.431 129.342 337.307C129.057 335.182 127.363 334.917 126.23 334.917C125.097 334.917 124.531 337.571 124.386 340.061C124.24 342.551 126.23 341.826 126.796 343.951C127.363 346.076 125.664 349.796 128.21 353.511C130.756 357.226 131.893 362.811 131.893 362.811C131.893 362.811 131.041 360.951 129.889 358.561C128.736 356.171 124.225 351.121 123.945 348.996C123.664 346.871 125.077 346.076 124.366 344.691C123.654 343.306 122.812 343.416 122.526 338.106C122.241 332.797 127.909 330.932 130.455 330.932C133.001 330.932 134.966 324.292 134.966 322.167C134.966 320.042 131.287 317.382 130.455 316.057C129.623 314.732 130.174 311.802 130.741 309.147C131.307 306.493 125.358 298.523 125.358 296.398C125.358 294.273 134.139 291.083 134.139 291.083C131.021 288.428 130.741 280.193 130.741 280.193C128.736 280.193 121.108 282.848 117.053 285.083C112.999 287.318 111.766 295.333 111.766 295.333C118.562 298.788 116.863 312.867 116.863 312.867C116.979 309.761 116.315 306.676 114.93 303.892C113.545 301.108 111.484 298.714 108.934 296.928C108.934 296.928 106.103 298.788 104.684 301.178C103.266 303.568 102.985 307.023 103.271 309.412C103.557 311.802 110.633 314.462 112.047 316.057C113.46 317.652 112.332 336.247 112.332 336.247C112.332 336.247 111.766 325.087 111.2 320.042C110.633 314.997 109.195 316.042 107.802 315.787C106.408 315.532 104.97 315.257 104.404 316.587C103.837 317.917 104.404 318.712 104.684 320.837C104.965 322.962 103.552 329.602 103.552 329.602C103.552 329.602 103.837 325.352 103.837 322.962C103.837 320.572 101.572 319.507 100.72 318.462C99.8678 317.417 101.572 316.337 101.572 313.412C101.572 310.487 98.7403 308.632 97.6076 308.632C96.4749 308.632 92.5105 311.817 91.0921 313.412C89.6738 315.007 82.0307 321.382 78.9585 322.537C75.8862 323.692 78.9585 326.037 78.9585 326.037C84.0956 327.757 84.8624 349.036 84.8624 349.036C84.8624 349.036 82.5971 335.487 79.4797 330.972C76.3624 326.457 71.8267 327.027 71.8267 327.027C71.7671 327.303 71.6816 327.572 71.5711 327.832C70.0024 331.927 61.9233 347.711 61.9233 347.711C63.6223 346.911 66.7397 329.642 66.7397 329.112C66.7397 328.582 61.0763 329.377 59.9436 329.377C58.811 329.377 54.2803 332.302 53.1476 334.957C52.0149 337.611 54.2803 357.536 54.2803 357.536C50.8823 355.146 50.0303 340.006 50.0303 335.487C50.0303 330.967 57.979 327.742 57.979 327.742C61.9434 327.472 74.1221 322.957 75.2547 322.957C76.3874 322.957 87.1478 314.987 87.9998 313.657C88.8518 312.327 89.1325 307.547 87.7141 307.283C86.2958 307.018 85.4488 308.082 84.8825 308.877C84.3161 309.672 80.0661 311.267 78.9785 311.552C77.891 311.837 71.2905 317.912 71.2905 317.912C71.2905 317.912 76.9539 310.207 79.8106 310.207C82.6673 310.207 84.6218 307.017 85.7595 306.208C86.8972 305.398 91.1372 305.143 94.8209 304.878C98.5046 304.613 99.0659 303.548 99.6323 302.753C100.199 301.958 101.331 297.173 101.637 295.313C101.943 293.453 105.316 292.658 106.448 292.128C107.581 291.598 107.015 288.673 105.882 286.813C104.749 284.953 103.05 275.919 103.05 275.124C103.05 274.329 100.504 274.064 98.2391 274.064C95.9737 274.064 94.841 275.919 93.7283 276.983C92.6157 278.048 91.4631 278.843 92.0294 279.373C92.5958 279.903 92.8763 280.438 93.7283 281.763C94.5803 283.088 94.2948 285.483 95.1418 286.548C95.9888 287.613 96.8408 292.923 96.8408 292.923C96.8408 292.923 94.5753 290.533 94.5753 288.923C94.5753 287.313 93.7284 287.328 92.8764 287.063C92.0244 286.798 91.7436 283.063 91.7436 281.748C91.7436 280.433 89.1977 281.483 87.7794 281.483C86.3611 281.483 84.6619 285.733 84.3813 287.858C84.1006 289.983 78.6327 294.803 78.6327 294.803L78.0664 305.693C78.0664 305.693 77.2144 300.118 76.648 298.258C76.0817 296.398 72.6838 297.458 72.6838 297.458C61.9234 299.318 60.6553 308.632 60.6553 308.632C61.6577 297.228 72.1123 296.398 73.245 295.598C74.3777 294.798 78.6277 290.818 79.7604 290.818C80.8931 290.818 80.6074 288.693 80.6074 286.318C80.6074 283.943 81.4594 283.393 82.8727 282.598C84.2861 281.803 85.4237 279.938 84.0054 276.224C82.587 272.509 78.0615 273.299 78.0615 273.829C78.0615 274.359 73.5507 277.828 71.8317 277.828C70.1126 277.828 67.0154 281.018 66.1684 282.878C65.3214 284.738 61.9183 286.068 60.505 286.333C59.0916 286.598 56.5406 289.518 53.9896 291.113C51.4386 292.708 44.0762 292.178 44.0762 292.178C44.0762 292.178 36.7891 299.408 36.7891 305.678C36.7891 305.678 43.2192 312.722 43.2192 315.332C43.2192 317.942 40.4226 308.372 36.7891 307.677C33.1555 306.982 36.2277 313.177 36.7891 317.897C37.3504 322.617 31.4765 317.942 32.0379 310.897C32.5992 303.853 38.468 288.978 43.2192 288.978C47.9704 288.978 50.2357 289.503 53.5686 286.893C56.9015 284.283 64.755 284.543 65.3113 278.803C65.8676 273.064 74.2624 267.304 78.733 267.304C83.2035 267.304 87.664 269.654 89.348 267.304C91.032 264.954 98.3092 256.084 102.504 256.084C106.699 256.084 120.366 258.694 122.201 256.084C124.035 253.474 127.668 245.65 125.709 241.475L150.036 230.515L150.598 248.014C150.598 248.014 159.824 254.014 166.816 253.754C173.807 253.494 178.844 255.324 179.676 257.409C180.508 259.494 189.745 266.804 197.854 265.499C205.963 264.194 207.081 268.369 207.081 268.369C207.081 268.369 211.837 268.869 216.032 268.869C220.227 268.869 243.712 282.958 243.993 292.093C243.993 292.093 236.445 276.958 223.58 276.958C223.58 276.958 220.222 278.263 223.018 282.458C225.815 286.653 230.291 300.723 230.291 300.723L227.494 298.113L225.539 307.507C225.539 307.507 224.978 289.763 223.86 287.153C222.743 284.543 219.946 282.978 219.385 282.458C218.823 281.938 219.665 274.109 219.665 274.109C219.665 274.109 208.76 270.719 204.565 270.194C200.37 269.669 198.972 271.239 202.059 273.849C205.146 276.459 212.403 291.588 212.123 297.348C212.123 297.348 211.286 285.088 202.34 278.563L198.42 276.214C198.42 276.214 200.661 269.954 193.669 268.389C186.678 266.824 181.926 269.169 182.483 271.259C183.039 273.349 188.913 274.909 188.913 278.043C188.913 281.178 188.357 282.218 191.153 284.543C193.95 286.868 197.303 291.588 197.303 291.588H201.778L198.982 292.893L202.34 298.113C202.34 298.113 186.958 285.613 186.958 282.978C186.958 280.343 185.841 276.719 182.763 275.414C179.686 274.109 175.491 261.844 171.858 261.324C168.224 260.804 160.115 260.799 157.038 260.019C157.038 260.019 155.639 266.519 163.749 268.889C171.858 271.259 171.021 273.849 171.021 273.849C171.021 273.849 174.654 277.238 177.732 277.238C180.809 277.238 182.483 275.674 182.202 281.413C181.921 287.153 180.318 293.743 180.318 293.743Z" fill="#4C433D"/>
<path d="M101.687 272.504L103.927 270.939L103.005 275.144L101.687 272.504Z" fill="#4C433D"/>
<path d="M109.797 285.808C109.797 285.808 107.291 282.938 108.96 277.458C110.628 271.979 112.317 269.634 111.465 269.109C110.613 268.584 126.847 269.374 127.964 266.504L128.496 270.939C128.496 270.939 110.638 274.589 109.797 285.808Z" fill="#E9E5DC"/>
<path d="M145.591 268.069C145.591 268.069 139.722 276.679 141.396 279.568C143.07 282.458 151.765 283.483 151.895 285.828C151.895 285.828 154.076 277.283 153.048 275.164C152.021 273.044 147.295 272.244 145.591 268.069Z" fill="#E9E5DC"/>
<path d="M141.095 287.243L145.29 296.243C145.29 296.243 150.046 289.743 149.766 288.933C149.485 288.123 147.225 285.028 141.095 287.243Z" fill="#4C433D"/>
<path d="M129.373 296.768L132.731 304.073L135.958 300.423L133.567 298.858L138.023 298.753V294.438L129.373 296.768Z" fill="#4C433D"/>
<path d="M170.76 279.548C170.76 279.548 165.723 286.333 168.254 289.983C170.785 293.633 177.566 294.438 177.566 294.438V280.123L170.76 279.548Z" fill="#E9E5DC"/>
</svg>
