<svg xmlns="http://www.w3.org/2000/svg" version="1.1" xmlns:xlink="http://www.w3.org/1999/xlink" xmlns:svgjs="http://svgjs.com/svgjs" width="1000" height="1000"><rect width="1000" height="1000" rx="500" ry="500" fill="#eae3d8"></rect><g transform="matrix(2.6402640264026402,0,0,2.6402640264026402,220.1754359852756,100)"><svg xmlns="http://www.w3.org/2000/svg" version="1.1" xmlns:xlink="http://www.w3.org/1999/xlink" xmlns:svgjs="http://svgjs.com/svgjs" width="212" height="303"><svg width="212" height="303" viewBox="0 0 212 303" fill="none" xmlns="http://www.w3.org/2000/svg">
<g clip-path="url(#clip0_191_830)">
<path d="M20.749 0L34.2058 30.484L44.6454 54.1232L59.6207 88.0471L70.6217 112.961L84.3741 144.11L95.4001 169.089H119.266L193.506 0H169.44L101.52 155.05L32.3764 0H20.749Z" fill="#4C433D"></path>
<path d="M148.295 213.743C150.841 213.743 157.07 227.292 157.07 227.292C160.188 228.622 165.59 231.542 166.468 235.542C167.345 239.542 163.019 249.607 165.565 254.127C168.111 258.646 164.433 272.986 164.433 272.986C165.851 267.676 161.887 253.327 160.468 253.327C159.05 253.327 155.371 256.517 154.524 257.576C153.677 258.636 155.938 268.471 155.938 268.471C153.106 265.546 153.392 256.252 153.392 256.252C153.392 256.252 163.019 246.687 163.586 238.717C164.152 230.747 155.938 231.642 155.938 231.642V234.997C155.938 243.232 150.841 241.372 145.744 242.172C140.647 242.972 136.402 251.467 136.402 251.467C136.402 241.907 145.463 240.047 148.575 240.047C151.688 240.047 152.825 237.652 152.825 231.012C152.825 224.373 151.407 221.448 151.407 221.448C151.407 221.448 145.463 220.123 147.162 220.918C148.861 221.713 140.647 231.277 142.346 230.217C144.045 229.157 144.35 220.918 144.35 220.918C144.35 220.918 142.651 220.653 136.422 219.588C130.192 218.523 129.305 213.208 129.305 204.443C129.305 195.679 125.907 201.783 125.907 201.783L124.774 206.283C124.774 206.283 119.391 208.673 121.09 211.593C122.79 214.513 124.208 225.943 124.208 225.943C124.208 225.943 123.075 225.143 123.075 220.893C123.075 216.643 121.07 217.438 121.07 217.438L119.091 223.283V211.613C119.091 211.083 116.54 213.473 116.54 213.473C116.54 213.473 109.744 221.973 108.611 224.898C107.478 227.822 112.861 229.947 112.861 229.947C120.504 235.787 116.825 242.697 115.141 246.662C113.457 250.627 112.896 256.242 112.896 256.242C111.478 253.317 113.463 248.272 114.876 242.957C116.289 237.642 112.33 233.127 110.631 232.332C108.932 231.537 104.967 231.267 104.967 233.127C104.967 234.987 107.799 237.127 108.365 242.162C108.932 247.197 104.967 251.457 104.967 251.457C104.967 251.457 101.003 260.226 102.702 265.006C104.401 269.786 107.513 275.101 108.365 281.476C108.805 285.16 110.062 288.701 112.044 291.84L111.764 303L110.911 292.11C110.911 292.11 108.365 288.92 107.233 282.016C106.1 275.111 97.6051 259.431 97.3194 257.307C97.0338 255.182 95.3398 254.917 94.2071 254.917C93.0744 254.917 92.5081 257.571 92.3627 260.061C92.2174 262.551 94.2071 261.826 94.7734 263.951C95.3398 266.076 93.6408 269.796 96.1868 273.511C98.7328 277.226 99.8704 282.811 99.8704 282.811C99.8704 282.811 99.0184 280.951 97.8657 278.561C96.713 276.171 92.2024 271.121 91.9217 268.996C91.641 266.871 93.0544 266.076 92.3427 264.691C91.631 263.306 90.789 263.416 90.5034 258.106C90.2177 252.797 95.886 250.932 98.4321 250.932C100.978 250.932 102.943 244.292 102.943 242.167C102.943 240.042 99.264 237.382 98.4321 236.057C97.6001 234.732 98.1514 231.802 98.7177 229.147C99.2841 226.493 93.335 218.523 93.335 216.398C93.335 214.273 102.116 211.083 102.116 211.083C98.9984 208.428 98.7177 200.193 98.7177 200.193C96.713 200.193 89.085 202.848 85.0304 205.083C80.9759 207.318 79.743 215.333 79.743 215.333C86.539 218.788 84.84 232.867 84.84 232.867C84.9565 229.761 84.2921 226.676 82.9072 223.892C81.5224 221.108 79.4611 218.714 76.9113 216.928C76.9113 216.928 74.0796 218.788 72.6613 221.178C71.2429 223.568 70.9623 227.023 71.2479 229.412C71.5336 231.802 78.6103 234.462 80.0236 236.057C81.437 237.652 80.3093 256.247 80.3093 256.247C80.3093 256.247 79.743 245.087 79.1766 240.042C78.6103 234.997 77.1719 236.042 75.7786 235.787C74.3853 235.532 72.9469 235.257 72.3806 236.587C71.8143 237.917 72.3806 238.712 72.6613 240.837C72.9419 242.962 71.5286 249.602 71.5286 249.602C71.5286 249.602 71.8143 245.352 71.8143 242.962C71.8143 240.572 69.5489 239.507 68.6969 238.462C67.8449 237.417 69.5489 236.337 69.5489 233.412C69.5489 230.487 66.7173 228.632 65.5846 228.632C64.4519 228.632 60.4876 231.817 59.0692 233.412C57.6509 235.007 50.0078 241.382 46.9356 242.537C43.8633 243.692 46.9356 246.037 46.9356 246.037C52.0727 247.757 52.8395 269.036 52.8395 269.036C52.8395 269.036 50.5742 255.487 47.4568 250.972C44.3395 246.457 39.8038 247.027 39.8038 247.027C39.7442 247.303 39.6587 247.572 39.5482 247.832C37.9795 251.927 29.9004 267.711 29.9004 267.711C31.5994 266.911 34.7168 249.642 34.7168 249.112C34.7168 248.582 29.0534 249.377 27.9207 249.377C26.7881 249.377 22.2574 252.302 21.1247 254.957C19.992 257.611 22.2574 277.536 22.2574 277.536C18.8594 275.146 18.0074 260.006 18.0074 255.487C18.0074 250.967 25.9561 247.742 25.9561 247.742C29.9205 247.472 42.0992 242.957 43.2318 242.957C44.3645 242.957 55.1249 234.987 55.9769 233.657C56.8289 232.327 57.1096 227.547 55.6912 227.283C54.2729 227.018 53.4259 228.082 52.8596 228.877C52.2932 229.672 48.0432 231.267 46.9556 231.552C45.8681 231.837 39.2675 237.912 39.2675 237.912C39.2675 237.912 44.9309 230.207 47.7876 230.207C50.6443 230.207 52.5989 227.017 53.7366 226.208C54.8743 225.398 59.1143 225.143 62.798 224.878C66.4817 224.613 67.043 223.548 67.6094 222.753C68.1757 221.958 69.3084 217.173 69.6141 215.313C69.9198 213.453 73.2928 212.658 74.4254 212.128C75.5581 211.598 74.9918 208.673 73.8591 206.813C72.7264 204.953 71.0274 195.919 71.0274 195.124C71.0274 194.329 68.4814 194.064 66.2161 194.064C63.9507 194.064 62.8181 195.919 61.7054 196.983C60.5928 198.048 59.4401 198.843 60.0064 199.373C60.5728 199.903 60.8534 200.438 61.7054 201.763C62.5574 203.088 62.2718 205.483 63.1188 206.548C63.9658 207.613 64.8178 212.923 64.8178 212.923C64.8178 212.923 62.5524 210.533 62.5524 208.923C62.5524 207.313 61.7054 207.328 60.8534 207.063C60.0014 206.798 59.7207 203.063 59.7207 201.748C59.7207 200.433 57.1747 201.483 55.7564 201.483C54.3381 201.483 52.639 205.733 52.3584 207.858C52.0777 209.983 46.6098 214.803 46.6098 214.803L46.0435 225.693C46.0435 225.693 45.1915 220.118 44.6251 218.258C44.0588 216.398 40.6608 217.458 40.6608 217.458C29.9004 219.318 28.6324 228.632 28.6324 228.632C29.6348 217.228 40.0894 216.398 41.2221 215.598C42.3548 214.798 46.6048 210.818 47.7375 210.818C48.8702 210.818 48.5845 208.693 48.5845 206.318C48.5845 203.943 49.4365 203.393 50.8498 202.598C52.2632 201.803 53.4008 199.938 51.9825 196.224C50.5641 192.509 46.0385 193.299 46.0385 193.829C46.0385 194.359 41.5278 197.828 39.8088 197.828C38.0897 197.828 34.9924 201.018 34.1454 202.878C33.2984 204.738 29.8954 206.068 28.4821 206.333C27.0687 206.598 24.5177 209.518 21.9667 211.113C19.4157 212.708 12.0533 212.178 12.0533 212.178C12.0533 212.178 4.76613 219.408 4.76613 225.678C4.76613 225.678 11.1963 232.722 11.1963 235.332C11.1963 237.942 8.3997 228.372 4.76613 227.677C1.13255 226.982 4.2048 233.177 4.76613 237.897C5.32745 242.617 -0.546407 237.942 0.0149173 230.897C0.576241 223.853 6.44508 208.978 11.1963 208.978C15.9475 208.978 18.2128 209.503 21.5457 206.893C24.8786 204.283 32.7321 204.543 33.2884 198.803C33.8447 193.064 42.2395 187.304 46.7101 187.304C51.1806 187.304 55.6411 189.654 57.3251 187.304C59.0091 184.954 66.2862 176.084 70.4811 176.084C74.676 176.084 88.3433 178.694 90.1776 176.084C92.0119 173.474 95.6455 165.65 93.6859 161.475L118.013 150.515L118.575 168.014C118.575 168.014 127.801 174.014 134.793 173.754C141.784 173.494 146.821 175.324 147.653 177.409C148.485 179.494 157.722 186.804 165.831 185.499C173.94 184.194 175.058 188.369 175.058 188.369C175.058 188.369 179.814 188.869 184.009 188.869C188.204 188.869 211.689 202.958 211.97 212.093C211.97 212.093 204.422 196.958 191.557 196.958C191.557 196.958 188.199 198.263 190.995 202.458C193.792 206.653 198.268 220.723 198.268 220.723L195.471 218.113L193.516 227.507C193.516 227.507 192.955 209.763 191.837 207.153C190.72 204.543 187.923 202.978 187.362 202.458C186.8 201.938 187.642 194.109 187.642 194.109C187.642 194.109 176.737 190.719 172.542 190.194C168.347 189.669 166.949 191.239 170.036 193.849C173.123 196.459 180.38 211.588 180.1 217.348C180.1 217.348 179.263 205.088 170.317 198.563L166.397 196.214C166.397 196.214 168.638 189.954 161.646 188.389C154.655 186.824 149.903 189.169 150.46 191.259C151.016 193.349 156.89 194.909 156.89 198.043C156.89 201.178 156.334 202.218 159.13 204.543C161.927 206.868 165.28 211.588 165.28 211.588H169.755L166.959 212.893L170.317 218.113C170.317 218.113 154.935 205.613 154.935 202.978C154.935 200.343 153.818 196.719 150.74 195.414C147.663 194.109 143.468 181.844 139.835 181.324C136.201 180.804 128.092 180.799 125.015 180.019C125.015 180.019 123.616 186.519 131.726 188.889C139.835 191.259 138.998 193.849 138.998 193.849C138.998 193.849 142.631 197.238 145.709 197.238C148.786 197.238 150.46 195.674 150.179 201.413C149.898 207.153 148.295 213.743 148.295 213.743Z" fill="#4C433D"></path>
<path d="M69.6641 192.504L71.9043 190.939L70.9822 195.144L69.6641 192.504Z" fill="#4C433D"></path>
<path d="M77.7736 205.808C77.7736 205.808 75.2677 202.938 76.9366 197.458C78.6055 191.979 80.2945 189.634 79.4425 189.109C78.5905 188.584 94.8238 189.374 95.9414 186.504L96.4727 190.939C96.4727 190.939 78.6155 194.589 77.7736 205.808Z" fill="#E9E5DC"></path>
<path d="M113.568 188.069C113.568 188.069 107.699 196.679 109.373 199.568C111.047 202.458 119.742 203.483 119.872 205.828C119.872 205.828 122.053 197.283 121.025 195.164C119.998 193.044 115.272 192.244 113.568 188.069Z" fill="#E9E5DC"></path>
<path d="M109.072 207.243L113.267 216.243C113.267 216.243 118.023 209.743 117.743 208.933C117.462 208.123 115.202 205.028 109.072 207.243Z" fill="#4C433D"></path>
<path d="M97.3496 216.768L100.708 224.073L103.935 220.423L101.544 218.858L106 218.753V214.438L97.3496 216.768Z" fill="#4C433D"></path>
<path d="M138.737 199.548C138.737 199.548 133.7 206.333 136.231 209.983C138.762 213.633 145.543 214.438 145.543 214.438V200.123L138.737 199.548Z" fill="#E9E5DC"></path>
</g>
<defs>
<clipPath id="clip0_191_830">
<rect width="212" height="303" fill="white"></rect>
</clipPath>
</defs>
</svg></svg></g></svg>