<svg width="60" height="60" viewBox="0 0 60 60" fill="none" xmlns="http://www.w3.org/2000/svg">
<path d="M18.8475 54.7526C41.49 54.7526 53.8762 35.9913 53.8762 19.7501C53.8762 19.2251 53.8763 18.6926 53.8538 18.1676C56.2652 16.4219 58.3465 14.2607 60 11.7851C57.7474 12.7783 55.3604 13.4329 52.9163 13.7276C55.4907 12.1887 57.419 9.76748 58.3425 6.91385C55.9237 8.34681 53.2763 9.35275 50.5163 9.8876C48.6607 7.91144 46.2053 6.60229 43.5303 6.16294C40.8554 5.72359 38.1102 6.17855 35.72 7.45736C33.3298 8.73617 31.428 10.7675 30.3092 13.2366C29.1903 15.7057 28.9169 18.4748 29.5312 21.1151C24.6365 20.8697 19.8481 19.5981 15.4764 17.3829C11.1048 15.1677 7.24757 12.0583 4.155 8.25635C2.58503 10.9679 2.1059 14.1754 2.81492 17.2273C3.52394 20.2793 5.36796 22.9471 7.9725 24.6888C6.02077 24.6225 4.11195 24.0984 2.4 23.1588V23.3276C2.40337 26.1682 3.3874 28.9204 5.18578 31.1192C6.98415 33.318 9.48655 34.8284 12.27 35.3951C11.2135 35.6862 10.1221 35.8312 9.02625 35.8263C8.25369 35.8287 7.48268 35.7571 6.72375 35.6126C7.51045 38.0578 9.04227 40.1957 11.1047 41.7269C13.1671 43.2581 15.6568 44.1058 18.225 44.1513C13.8621 47.5781 8.47275 49.4366 2.925 49.4276C1.94745 49.4317 0.970587 49.3754 0 49.2588C5.63068 52.8486 12.1699 54.7547 18.8475 54.7526Z" fill="#4C433D"/>
</svg>
